<svg width="155" height="265" viewBox="0 0 155 265" xmlns="http://www.w3.org/2000/svg">
    <g fill="none" fill-rule="evenodd">
        <path d="M0 0h155v265H0z"/>
        <path d="M114.456 198.943c4.686-5.957 9.996-12.711 13.46-20.432 4.96-11.03 4.827-22.808 4.531-25.13-.386-3.003-6.159-10.398-14.502-12.96-.33-3.653-2.072-21.277-5.609-29.621-1.415-3.337-3.846-10.729-7.225-21.968-3.025-10.062-7.054-19.724-11.828-28.995l2.294-32.015c.289-5.493-2.759-10.665-7.584-12.87-2.454-1.117-5.783-.71-8.098.984-4.167 3.064-6.144 8.951-6.989 12.368-.64-.557-1.315-1.07-2.065-1.48-3.555-1.933-7.817-1.908-11.143.059-4.54 2.69-4.786 13.316 2.659 26.44 1.258 2.22 2.727 5.684 4.28 9.839l-.012-.001c-1.314 18.268-3.82 38.263-5.698 40.074l.183.279c-.569-.224-1.082-.525-1.72-.65-7.694-1.53-12.94-.13-16.573 4.347-1.856 2.293-1.504 6.712-.405 11.274-3.453.987-14.96 4.954-17.25 14.518-2.463 10.284-2.742 33.33-1.405 38.96 1.274 5.364 14.712 38.025 18.08 44.47 2.63 5.028 2.306 25.489 1.963 32.95l2.688.122.01-.242c.088-1.976.705-17.445-.605-27.354 3.76.105 9.267-.14 13.616-2.15 1.455-.666 3.656-.83 6.511-.5l.24-2.009c-3.22-.363-5.796-.154-7.599.676-4.161 1.923-9.846 2.076-13.077 1.976-.275-1.552-.616-2.878-1.03-3.914 3.197.2 10.182.297 15.366-2.1 6.174-2.845 23.207 2.168 23.375 2.216l.578-1.938c-.734-.217-17.942-5.278-24.801-2.11-5.428 2.51-13.405 2.01-15.487 1.83-4.05-8.445-16.068-37.751-17.206-42.545-1.13-4.765-1.078-27.348 1.404-37.713 1.927-8.045 12.26-11.633 15.321-12.532a71.3 71.3 0 0 0 1.217 3.716l-1.98 1.363c.26.38 26.176 38.042 28.801 44.363.684 1.633.51 5.756.02 6.649-.91 1.644-2.528 2.718-4.44 2.94-2.007.226-4.01-.51-5.33-1.965l-31.76-37.434-2.055 1.742 8.727 10.286c-4.28.717-7.303.818-7.334.818l.032 1.618c.147-.002 3.585-.092 8.526-.994l13.331 15.712c-1.286 2.23-8.183 14.411-8.382 19.407l1.617.067c.168-4.253 6.077-14.981 7.879-18.162l7.396 8.717a8.959 8.959 0 0 0 6.003 2.903c.307.022.622-.01.934-.021-.042 4.636.492 16.067 6.39 24.1l1.3-.958c-5.65-7.698-6.102-19.1-6.06-23.372 2.381-.534 4.398-1.957 5.581-4.099.989-1.787 1.049-6.746.111-8.99-.062-.15-.194-.394-.28-.574 2.258-.436 5.184-2.03 6.303-6.286.938-3.571.687-7.04.305-9.381 5.004 1.778 13.752 12.146 16.812 16.16l2.146-1.63c-1.101-1.445-10.013-12.925-16.676-16.45.591-.71 1.274-1.7 1.81-3.049l-1.503-.593a9.288 9.288 0 0 1-1.868 2.974c-.204-.069-.435-.222-.632-.27-6.011-1.466-20.251-8.555-26.856-14.976-3.92-3.812-4.652-10.57-3.09-14.899.228-.63.613-1.464 1.17-2.19-.247 4.409.048 7.241.935 8.26 1.245 1.432 7.208 4.384 11.517 4.686 1.427.1 2.677-.093 3.51-.73 2.183-1.669 2.51-6.419 2.468-9.762l.03.01c3.3 1.123 6.642 2.24 9.643 3.045-.751 2.44-2.328 8.698-1.033 15.166l1.585-.318c-1.224-6.114.337-12.21 1.022-14.445.922.217 1.822.413 2.635.532.452.066.999.317 1.496.471-.154 1.69-.677 7.2-1.122 9.134l1.577.36c.445-1.934.937-6.97 1.124-8.996 2.103.916 4.483 2.384 6.94 4.03-.268.93-2.201 7.342-5.328 10.582l1.162 1.124c3.062-3.172 4.98-8.831 5.572-10.766 1.146.788 2.3 1.594 3.447 2.404 5.848 4.129 11.894 8.396 16.85 9.34 8.907 1.69 14.26 9.593 14.473 11.257.233 1.803.411 13.172-4.31 23.687-3.332 7.417-8.533 14.034-13.122 19.87-1.792 2.278-3.468 4.41-4.869 6.383-4.772 6.735-.275 41.092.88 49.291l.197 1.373 2.666-.394c-2.485-16.948-4.95-43.905-1.543-48.712 1.375-1.942 3.025-4.036 4.785-6.277zm-24.9-152.1c-2.015.408-2.928.5-3.381.511-.9-1.435-1.724-2.915-2.668-4.324a149.28 149.28 0 0 0-3.08-4.423c-.73-1.01-1.427-2.138-2.138-3.285-.991-1.595-2.003-3.21-3.15-4.661.414-2.16 2.076-9.41 6.352-12.552 1.515-1.111 3.828-1.417 5.38-.702 3.832 1.748 6.248 5.874 6.014 10.247l-1.978 27.598c-1.196-2.158-2.495-4.256-3.784-6.362a34.32 34.32 0 0 0 2.75-.462l-.318-1.585zM66.22 157.014c.12-.496 1.401-1.827 3.438-2.517 1.093-.362 3.063-.748 4.07.796.732 1.116 1.52 3.014 1.87 4.51.175.754-.265 1.524-.98 1.751l-4.696 1.34a348.695 348.695 0 0 0-3.702-5.88zm10.826 4.944c-1.105 4.198-4.274 4.438-5.048 4.434-.36-.63-.766-1.32-1.212-2.063l4.297-1.225a3.13 3.13 0 0 0 2.09-3.67c-.396-1.682-1.257-3.75-2.091-5.029-1.693-2.578-5.02-2.056-7.365-.825-.973.513-1.884 1.188-2.477 1.915a1039.78 1039.78 0 0 0-9.65-14.607c6.61 4.894 15.668 9.45 21.442 11.41.415 1.833 1.044 5.734.014 9.66zm-29.482-42.343c-.43 1.195-.693 2.568-.821 4.003-3.04-8.615-2.983-13.29-1.833-14.71 2.002-2.469 5.38-5.078 13.958-3.403 5.504 1.082 7.783 7.722 8.66 11.523-1.94-.74-5.386-1.895-8.897-2.356-1.894-.403-3.65-.676-5.023-.57-2.653.21-4.857 2.22-6.044 5.513zm18.68 9.656c-2.316 1.767-11.419-2.114-12.819-3.736-.473-.54-.883-3.03-.487-8.27.04-.52.419-.941.923-1.028 1.015-.176 2.121-.201 3.26-.121 3.954.276 8.272 1.805 10.255 2.583.411.157.687.55.706.996.181 4.903-.52 8.57-1.837 9.576zm27.008-2.915c2.56-2.003 8.254-6.173 13.35-7.898l-.518-1.533c-5.767 1.952-11.963 6.654-14.274 8.507-2.843-1.707-5.5-2.973-7.84-3.314-3.534-.517-8.536-2.22-13.374-3.866l-.064-.022c-.474-2.867-2.206-10.227-7.343-13.701 2.725-4.63 4.647-22.928 5.657-35.147 6.154 17.946 12.729 42.355 12.82 42.693l2.6-.696c-.514-1.928-12.732-47.33-19.569-59.383-6.816-12.02-6.47-21.11-3.626-22.795 1.97-1.158 5.239-1.777 8.479-.01 2.662 1.452 4.585 4.554 6.446 7.553.746 1.203 1.478 2.382 2.242 3.438a153.78 153.78 0 0 1 3.027 4.347c9.28 13.851 16.433 29.018 21.265 45.079 3.405 11.33 5.872 18.816 7.324 22.245 3.08 7.257 4.799 22.627 5.302 27.746-4.3-1.073-9.796-4.894-15.156-8.674-2.325-1.642-4.571-3.183-6.748-4.57z" fill="#FFF" fill-rule="nonzero"/>
        <path d="m81.073 57.37-1.182-1.105c-5.705 6.09-13.662 6.236-13.741 6.237l.012 1.617c.353-.002 8.715-.14 14.911-6.75zM91.54 78.353l-.237-1.6c-10.28 1.543-15.159 5.993-15.363 6.18l1.1 1.185c.047-.043 4.757-4.303 14.5-5.765zM77.133 85.564l-.507 1.534c.13.042 1.28.41 3.043.532 3.291.23 8.719-.386 13.603-5.541l-1.175-1.111c-6.771 7.14-14.642 4.694-14.964 4.586zM66.877 179.255c.066.004.132.009.2.007 1.544.009 4.641-1.285 6.053-2.802 1.243-1.32-.28-4.164-.297-4.195-1.404-2.509-2.682-3.986-3.794-4.397-2.456-.91-5.173.271-6.073 2.622-.315.835-.398 1.74-.24 2.69.354 2.1 1.078 3.624 1.621 4.536a3.227 3.227 0 0 0 2.53 1.539zm-2.401-8.188c.476-1.243 1.75-1.975 3.082-1.881.309.021.618.086.92.2.263.097 1.25.644 2.945 3.667.465.84.7 2.05.528 2.303-1.084 1.164-3.702 2.296-4.866 2.29-.536-.02-1.07-.295-1.348-.763h-.003c-.472-.788-1.102-2.118-1.414-3.97-.109-.66-.055-1.283.156-1.846z" fill="#FFF" fill-rule="nonzero"/>
    </g>
</svg>
